<svg xmlns="http://www.w3.org/2000/svg" viewBox="0 0 10.72 12.01">
    <path fill="#f5aec0" d="M6.31,2.77a1.14,1.14,0,0,1-.22.39C6,3.24,6,3.22,6,3.08A1.9,1.9,0,0,0,5.2,1.67,3.26,3.26,0,0,0,3.64,1a3.48,3.48,0,0,0-1.71.09,1.87,1.87,0,0,0-1.19.83,1.84,1.84,0,0,0,0,1.63,3.23,3.23,0,0,0,.56.86c.15.15.4.37.74.67a9.69,9.69,0,0,1,.81.76A12.74,12.74,0,0,1,4,7.32a5.85,5.85,0,0,1,.79,1.73,1.83,1.83,0,0,1-.61,1.84,4.14,4.14,0,0,1-1.95.94,5.18,5.18,0,0,1-2,.14c-.23,0-.31-.18-.25-.43A1,1,0,0,1,.31,11a7.83,7.83,0,0,1,1.14-.83l1.28-.71.59-.3C4.17,8.72,5.42,8,7.08,7l.45-.25a11.06,11.06,0,0,0,1.64-1,2.2,2.2,0,0,0,1-1.43,1.89,1.89,0,0,0-.31-1.37,1.81,1.81,0,0,0-1-.68,2.43,2.43,0,0,0-1.36,0A2.63,2.63,0,0,0,6.23,3c-.1.1-.19.12-.24,0a.47.47,0,0,1-.07-.36.54.54,0,0,1,.13-.35,3.69,3.69,0,0,1,1.28-.83A3.13,3.13,0,0,1,8.9,1.29,1.66,1.66,0,0,1,10.18,2a3.37,3.37,0,0,1,.54,2A3.07,3.07,0,0,1,10,5.89,6,6,0,0,1,8.43,7.14,17.31,17.31,0,0,1,6.57,8,19.79,19.79,0,0,0,4.64,9c-.31.19-.8.47-1.46.83A22.24,22.24,0,0,0,1,11.11c-.37.26-.34.36.09.32a7.05,7.05,0,0,0,1-.18,3.55,3.55,0,0,0,1.41-.56,1.14,1.14,0,0,0,.45-1.35,5.3,5.3,0,0,0-.56-1.19,11.16,11.16,0,0,0-.78-1.07q-.21-.27-.72-.81A11.16,11.16,0,0,1,.56,4.72,2.76,2.76,0,0,1,.09,2.88a2.84,2.84,0,0,1,1.12-2A3.65,3.65,0,0,1,3.28,0,3.07,3.07,0,0,1,5.33.46,2.32,2.32,0,0,1,6.39,2.37.89.89,0,0,1,6.31,2.77Z"/>
</svg>