<svg id="Layer_1" data-name="Layer 1" xmlns="http://www.w3.org/2000/svg" viewBox="0 0 13.86 12.02">
    <path fill="#f5aec0" d="M13.53,5.32a3.55,3.55,0,0,1-.95,1.25L7.27,11.89a.45.45,0,0,1-.34.13.47.47,0,0,1-.34-.13L1.28,6.57A3.53,3.53,0,0,1,.34,5.32,3.79,3.79,0,0,1,.5,1.87,3.91,3.91,0,0,1,1.87.5,3.71,3.71,0,0,1,3.73,0,3.58,3.58,0,0,1,5.58.49a3.83,3.83,0,0,1,1.35,1.3A4,4,0,0,1,8.29.49,3.58,3.58,0,0,1,10.14,0,3.65,3.65,0,0,1,12,.5a3.88,3.88,0,0,1,1.36,1.37,3.73,3.73,0,0,1,.5,1.88A3.85,3.85,0,0,1,13.53,5.32Z"/>
</svg>